<svg width="720" height="900" viewBox="0 0 720 900" xmlns="http://www.w3.org/2000/svg" role="img" aria-label="شبکه فراخوان ها">
  <defs>
    <linearGradient id="bg" x1="0" y1="0" x2="1" y2="1">
      <stop offset="0" stop-color="#F5F2FF" />
      <stop offset="1" stop-color="#E8ECFF" />
    </linearGradient>
    <linearGradient id="accent" x1="0" y1="0" x2="1" y2="1">
      <stop offset="0" stop-color="#7C3AED" />
      <stop offset="1" stop-color="#4C1D95" />
    </linearGradient>
  </defs>
  <rect width="720" height="900" rx="48" fill="url(#bg)" />
  <g stroke="#DAD6FF" stroke-width="1.5">
    <path d="M120 0v900" />
    <path d="M240 0v900" />
    <path d="M360 0v900" />
    <path d="M480 0v900" />
    <path d="M600 0v900" />
    <path d="M0 120h720" />
    <path d="M0 240h720" />
    <path d="M0 360h720" />
    <path d="M0 480h720" />
    <path d="M0 600h720" />
    <path d="M0 720h720" />
  </g>
  <rect x="96" y="96" width="232" height="140" rx="32" fill="white" opacity="0.85" />
  <rect x="96" y="276" width="232" height="220" rx="32" fill="white" opacity="0.9" />
  <rect x="96" y="536" width="232" height="268" rx="32" fill="white" opacity="0.85" />
  <rect x="360" y="96" width="264" height="268" rx="36" fill="white" opacity="0.95" />
  <rect x="360" y="396" width="264" height="188" rx="36" fill="white" opacity="0.92" />
  <rect x="360" y="616" width="264" height="188" rx="36" fill="url(#accent)" opacity="0.9" />
  <text x="392" y="684" font-family="'Vazirmatn', sans-serif" font-size="32" fill="white" opacity="0.9">LCP &lt; 2.5s</text>
  <text x="392" y="732" font-family="'Vazirmatn', sans-serif" font-size="18" fill="white" opacity="0.75">CLS &lt; 0.1 / INP &lt; 200ms</text>
</svg>
